<svg xmlns="http://www.w3.org/2000/svg" width="216" height="71"><path fill-rule="evenodd" fill="#312783" d="M53.493 47.028L33.218 65.65s-10.273-2.699-12.976-12.955c-2.703-10.256 5.947-18.622 14.598-19.432 8.651-.809 17.032 0 17.032 0v7.287H38.084s-12.165-.539-8.11 12.145c2.453 5.829 10.391 5.234 11.354 4.049v-9.716h12.165z"/><path fill-rule="evenodd" fill="#E30613" d="M55.372 62.574V61.35h2.756v3.596a7.648 7.648 0 0 1-2.471.394c-1.049 0-1.849-.307-2.402-.923-.553-.615-.829-1.498-.829-2.649 0-1.12.32-1.993.962-2.619.642-.626 1.53-.939 2.668-.939.713 0 1.4.142 2.063.426l-.49 1.177a3.5 3.5 0 0 0-1.582-.38c-.637 0-1.147.214-1.53.641-.384.427-.576 1.001-.576 1.722 0 .753.155 1.328.464 1.725.309.397.757.595 1.348.595.306 0 .618-.032.935-.095v-1.447h-1.316zm-5.859-4.265h1.473v6.936h-1.473v-6.936zm-4.125 7.031c-1.048 0-1.85-.307-2.402-.923-.553-.615-.829-1.498-.829-2.649 0-1.12.32-1.993.962-2.619.641-.626 1.531-.939 2.668-.939.713 0 1.4.142 2.063.426l-.49 1.177a3.503 3.503 0 0 0-1.582-.38c-.637 0-1.147.214-1.531.641-.382.427-.575 1.001-.575 1.722 0 .753.155 1.328.464 1.725.309.397.758.595 1.347.595.308 0 .619-.032.936-.095v-1.447h-1.316V61.35h2.756v3.596a7.672 7.672 0 0 1-1.262.306 8.154 8.154 0 0 1-1.209.088z"/><path fill-rule="evenodd" fill="#E30613" d="M59.17 60.792s15.613-3.643 8.922-19.432C61.401 25.572 34.029-3.172.778.877c0 0 21.288-1.417 45.416 20.241C70.321 42.777 65.456 54.315 59.17 60.792z"/><path fill-rule="evenodd" fill="#E30613" d="M12.986 70.508s-15.6-3.621-8.914-19.31C10.758 35.509 38.109 6.947 71.335 10.97c0 0-21.273-1.408-45.383 20.114C1.843 52.606 6.705 64.071 12.986 70.508z"/><path fill-rule="evenodd" d="M188.775 54.533c-.099.21-.329.448-.693.713-.364.265-.59.398-.68.398-.067 0-.162-.061-.285-.183a5.01 5.01 0 0 0-.881-.705c-.151.167-.375.293-.672.377a2.821 2.821 0 0 1-.747.125c-.563 0-1.008-.415-1.338-1.235-1.115.012-1.996.103-2.623.28l-1.973.553c-.951.268-1.891.402-2.82.402-.39 0-.724-.193-1.002-.576a2.51 2.51 0 0 1-.584.564c-.364.265-.591.398-.68.398-.067 0-.163-.061-.286-.183a4.967 4.967 0 0 0-.88-.705c-.152.167-.375.293-.672.377a2.821 2.821 0 0 1-.747.125h-.68c-.089 1.073-.435 1.994-1.036 2.766-.602.77-1.333 1.156-2.195 1.156-.252 0-.553-.07-.903-.209-.349-.139-.622-.325-.818-.558.806 0 1.492-.129 2.057-.386a5.548 5.548 0 0 0 1.49-.985c.427-.399.692-.697.792-.893.101-.197.152-.494.152-.891-.821-.022-1.374-.108-1.657-.259-.282-.151-.424-.528-.425-1.131 0-.615.112-1.185.336-1.71.224-.525.475-.787.755-.787.425 0 .782.271 1.07.812.289.542.433 1.104.433 1.685h.662c.745 0 1.24-.062 1.486-.185.33-1.436.78-2.153 1.352-2.153.301 0 .583.163.843.49.26.327.391.778.391 1.353 0 .184-.008.342-.018.488l1.78.007c.392 0 .98-.095 1.766-.284.787-.189 1.423-.389 1.91-.6-.979-.662-1.675-.993-2.09-.993-.263 0-.556.108-.881.326l-.227.151c.303-1.117.848-1.676 1.637-1.676.414 0 .963.232 1.645.696a8.95 8.95 0 0 0 1.531.85c.484.204 1.096.315 1.834.331l-.439 1.199h1.086c.744 0 1.239-.062 1.486-.185.33-1.436.78-2.153 1.351-2.153.302 0 .583.163.844.49.259.327.389.778.389 1.353 0 .564-.048.951-.146 1.16zm-19.304-1.551c-.2-.208-.382-.313-.551-.313-.324 0-.487.224-.487.671 0 .234.105.381.316.44.209.058.577.088 1.104.088-.057-.382-.184-.677-.382-.886zm4.685.085c-.231-.203-.412-.305-.546-.305-.128 0-.267.257-.417.77.067.012.486.333 1.259.964a1.96 1.96 0 0 0 .05-.503c0-.413-.116-.722-.346-.926zm13.605 0c-.23-.203-.413-.305-.546-.305-.127 0-.267.257-.417.77.066.012.487.333 1.26.964.032-.118.049-.285.049-.503 0-.413-.115-.722-.346-.926zm-23.859 1.395c-1.64.51-2.855.768-3.668.788v.008h-.731c-.425 0-.752-.085-.982-.255-.229-.17-.383-.666-.461-1.487l-.756.636a34.33 34.33 0 0 1-1.384-.159c-.129-.022-.199-.067-.211-.134a.279.279 0 0 1-.008-.075c0-.106.02-.21.059-.31l.436-1.09c.152-.368.367-.641.647-.817a8.01 8.01 0 0 1 1.091-.548c-.017-.152-.084-.349-.201-.591l.709-.943c.087.81.145 1.712.171 2.707.017.692.081 1.145.19 1.357.109.212.328.319.658.319h.873c.398 0 .901-.102 1.511-.306-.202-.268-.302-.525-.302-.77 0-.424.206-.984.621-1.678.414-.695.948-1.042 1.603-1.042.923 0 1.486.528 1.687 1.584a224.42 224.42 0 0 1-.42-.135c-.71-.245-1.23-.368-1.561-.368-.335 0-.645.077-.931.23-.286.154-.429.348-.429.583 0 .257.219.49.655.699.436.21.899.314 1.386.314.363 0 .808-.092 1.334-.276.207-.073.358-.123.453-.151l-.201 1.391c-.358.078-.971.251-1.838.519zm-5.876-2.387c0-.045-.014-.28-.042-.704h-.05l-.319.536-.268.1c-.326.112-.558.217-.697.315-.14.097-.219.247-.236.448.28.084.61.125.991.125.151 0 .358-.013.621-.041v-.779zm-.386-4.182a9.209 9.209 0 0 0-.353-.31 24.98 24.98 0 0 1-.847.823l-.85-.848.808-.823c.571.521.881.795.932.823l.83-.84c.264.208.552.469.867.782l-.824.881a7.06 7.06 0 0 1-.563-.488zm-9.677 6.569c-1.707.531-2.965.796-3.777.796-.202 0-.432-.139-.693-.418a2.389 2.389 0 0 1-.342-.476 2.226 2.226 0 0 1-.287.337c-.17.159-.446.292-.827.398-.381.106-.928.159-1.644.159-.203 0-.437-.108-.706-.326a1.972 1.972 0 0 1-.46-.59 2.45 2.45 0 0 1-.316.372c-.177.162-.474.293-.894.394-.419.1-1.011.15-1.771.15-.191 0-.419-.108-.685-.326a1.734 1.734 0 0 1-.294-.33l-.406.598c-.526-.067-.887-.101-1.083-.101-.509 0-.814.07-.914.21-.102.139-.152.424-.152.854 0 .224.031.724.093 1.5.089 1.128.134 1.93.134 2.405 0 .257-.057.566-.173.926-.114.36-.247.616-.398.766a111.92 111.92 0 0 0-.234-3.741 32.172 32.172 0 0 1-.085-1.414c0-.999.179-1.707.538-2.126a1.911 1.911 0 0 1-.219-.84c0-.292.186-.663.558-1.114.372-.451.676-.677.911-.677.54 0 1.159.676 1.856 2.02h1.946c.884 0 1.326-.079 1.326-.236 0-.05-.056-.179-.167-.386a12.101 12.101 0 0 1-.47-.975l.835-1.051c.394.771.591 1.371.591 1.801 0 .269-.089.553-.243.847h2.065c.884 0 1.326-.079 1.326-.236 0-.05-.054-.179-.16-.386a10.864 10.864 0 0 1-.478-.975l.843-1.051c.389.771.583 1.371.583 1.801 0 .27-.088.554-.24.847h.946c.397 0 .9-.102 1.51-.306-.201-.268-.301-.525-.301-.77 0-.424.206-.984.62-1.678.414-.695.949-1.042 1.603-1.042.924 0 1.486.528 1.687 1.584a126.88 126.88 0 0 1-.419-.135c-.71-.245-1.231-.368-1.561-.368a1.94 1.94 0 0 0-.932.23c-.285.154-.428.348-.428.583 0 .257.218.49.654.699.437.21.899.314 1.386.314.363 0 .808-.092 1.334-.276.207-.073.358-.123.453-.151l-.201 1.391c-.358.078-.971.251-1.838.519zm-13.878-1.168a.74.74 0 0 0-.576-.248c-.486 0-.73.295-.73.884 0 .102.009.212.026.331.218-.24.607-.36 1.167-.36.223 0 .335-.057.335-.171 0-.126-.075-.271-.222-.436zm12.367-4.998l.722-1.207 1.2.67-.697 1.224-1.225-.687zm-5.17.494l1.011-.964.97 1.014-1.012.964-.969-1.014zm-15.694 1.776c-.046-.57-.069-.938-.069-1.106 0-.592.101-1.022.304-1.29l.624-.855c0 .318-.01.81-.029 1.475l-.009.385c0 .486.017 1.294.05 2.422.022.754.034 1.24.034 1.458 0 1.055-.22 1.877-.658 2.463a73.531 73.531 0 0 0-.247-4.952zm-2.402-1.814c.145 1.945.219 3.323.219 4.134 0 .475-.046.876-.135 1.203-.09.327-.304.604-.642.83-.339.226-.855.339-1.548.339-.28 0-.556-.174-.827-.523-.044-.056-.061-.1-.098-.153-.16.281-.462.489-.926.614a5.719 5.719 0 0 1-1.474.213c-.564 0-.928-.081-1.091-.243-.161-.162-.243-.416-.243-.762 0-.676.051-1.014.151-1.014.061 0 .095.047.101.142.028.341.425.512 1.191.512.364 0 .745-.047 1.142-.139.398-.091.654-.171.769-.238.114-.067.171-.151.171-.251 0-.346-.419-1.062-1.258-2.15l.474-1.245c.496.636.831 1.123 1.003 1.46.173.338.259.788.259 1.352 0 .406-.022.747-.062 1.035h1.347c.408 0 .691-.022.848-.063.156-.042.235-.15.235-.323 0-.358-.023-.816-.07-1.375l-.25-2.994c-.049-.631-.137-1.039-.26-1.224.062-.089.163-.242.304-.459.191-.306.329-.512.415-.617.032.05.095.155.185.317.225.428.411.687.556.776l-.141.243c-.169.279-.283.48-.345.603zm-11.222 10.377c-.251 0-.552-.069-.902-.208-.35-.139-.622-.325-.818-.558.934 0 1.72-.176 2.359-.529.637-.352 1.156-.751 1.556-1.195.401-.445.6-.871.6-1.28 0-.106-.008-.22-.025-.344a6.689 6.689 0 0 1-.89.093c-.77 0-1.157-.429-1.158-1.285 0-.51.103-1.056.31-1.638.208-.582.457-.873.747-.873.381 0 .729.249 1.046.746.316.498.474 1.231.474 2.198 0 1.359-.305 2.511-.915 3.456-.61.945-1.404 1.417-2.384 1.417zm2.136-6.232c-.176-.191-.348-.286-.515-.286-.326 0-.487.225-.487.675 0 .348.257.523.771.523.381 0 .599-.02.655-.059-.106-.379-.247-.663-.424-.853zm-4.167-4.145c.146 1.945.218 3.323.218 4.134 0 .475-.045.876-.134 1.203-.089.327-.303.604-.642.83-.339.226-.855.339-1.549.339-.28 0-.554-.174-.826-.523-.098-.126-.158-.235-.221-.346-.096.131-.191.24-.283.325-.176.162-.474.293-.894.394-.419.1-1.01.15-1.771.15l-.008-.001v.001h-.73c-.425 0-.753-.085-.982-.255-.23-.17-.384-.666-.462-1.487l-.756.636a34.586 34.586 0 0 1-1.384-.159c-.129-.022-.199-.067-.21-.134a.238.238 0 0 1-.009-.075c0-.106.02-.21.059-.31l.436-1.09c.152-.368.367-.641.647-.817a8.01 8.01 0 0 1 1.091-.548c-.017-.152-.083-.349-.201-.591l.709-.943c.087.81.145 1.712.172 2.707.017.692.08 1.145.189 1.357.109.212.328.319.658.319h2.175c.883 0 1.326-.079 1.326-.236 0-.05-.056-.179-.168-.386a12.45 12.45 0 0 1-.47-.975l.835-1.051c.395.771.592 1.371.592 1.801 0 .269-.089.553-.243.847h1.359c.409 0 .691-.022.848-.063.157-.042.235-.15.235-.323 0-.358-.024-.816-.069-1.375l-.25-2.994c-.051-.631-.137-1.039-.26-1.224.061-.089.162-.242.303-.459a7.82 7.82 0 0 1 .414-.617c.034.05.096.155.186.317.224.428.411.687.557.776l-.143.243a9.85 9.85 0 0 0-.344.603zm-8.318 3.323c0-.045-.014-.28-.041-.704h-.051l-.318.536-.269.1c-.324.112-.557.217-.697.315-.14.097-.219.247-.235.448.279.084.61.125.99.125.151 0 .358-.013.621-.041v-.779zm-.385-4.182c-.18-.162-.297-.265-.353-.31-.414.414-.697.688-.848.823l-.85-.848.809-.823c.57.521.88.795.931.823l.831-.84c.263.208.552.469.866.782l-.824.881a7.313 7.313 0 0 1-.562-.488zm4.615 8.836l-.818.917-.893-.791.818-.918.893.792zm1.73-.159l-.819.934-.894-.8.819-.926.894.792zm30.685.159l-.818.917-.894-.791.819-.918.893.792zm1.729-.159l-.818.934-.894-.8.818-.926.894.792zm41.639-.382l-.604 1.282-1.293-.645.663-1.24 1.234.603zm33.394-17.891c-.436.435-1.002.653-1.696.653a2.67 2.67 0 0 1-1.229-.272v1.94h-1.495v-7.386h.877c.287 0 .472.149.558.447.444-.347.958-.52 1.544-.52.63 0 1.14.207 1.531.622.461.496.691 1.236.691 2.219 0 1.02-.26 1.785-.781 2.297zm-1.792-3.863c-.331 0-.709.164-1.133.49v2.485c.234.213.564.32.987.32.8 0 1.199-.548 1.199-1.644 0-1.101-.351-1.651-1.053-1.651zm-5.16 4.123c-.605.335-1.182.502-1.731.502-1.118 0-1.677-.55-1.677-1.65v-4.177h1.501v3.953c0 .399.193.598.575.598.36 0 .786-.137 1.279-.411v-4.14h1.483v5.748h-.872c-.299 0-.484-.141-.558-.423zm-7.271.496c-.799 0-1.456-.262-1.967-.786-.53-.54-.794-1.255-.794-2.146 0-.895.264-1.616.794-2.164.511-.532 1.168-.798 1.967-.798.8 0 1.455.266 1.968.798.529.548.794 1.269.794 2.164 0 .891-.265 1.606-.794 2.146-.513.524-1.168.786-1.968.786zm.915-4.22c-.218-.294-.524-.441-.915-.441-.387 0-.69.147-.908.441-.226.303-.339.732-.339 1.288 0 .552.113.975.339 1.269.218.279.521.418.908.418.391 0 .697-.139.915-.418.221-.29.332-.713.332-1.269 0-.556-.111-.985-.332-1.288zm-6.57.151v3.996h-1.496v-5.748h.872c.295 0 .483.151.564.453.415-.331.863-.496 1.343-.496.106 0 .275.03.509.091v1.251l-.46-.006c-.529 0-.973.153-1.332.459zm-5.267 4.069c-1.102 0-1.96-.335-2.574-1.004-.63-.681-.944-1.654-.944-2.919 0-1.25.337-2.219 1.011-2.908.646-.669 1.526-1.003 2.639-1.003.76 0 1.517.193 2.272.58v1.299h-.727a2.34 2.34 0 0 0-1.52-.544c-.634 0-1.121.2-1.46.599-.371.431-.556 1.078-.556 1.94 0 1.777.62 2.666 1.859 2.666.464 0 .825-.054 1.084-.163v-1.499h-1.205v-1.258h2.79V38.4c-.794.435-1.685.653-2.669.653zm-9.694-7.599h.812c.298 0 .488.055.569.164.08.108.121.358.121.749v6.613h-1.502v-7.526zm-2.203 7.448a.556.556 0 0 1-.267-.309c-.412.307-.898.46-1.459.46-.565 0-1.016-.153-1.35-.46-.356-.322-.534-.777-.534-1.366 0-.596.215-1.056.642-1.378.4-.302.945-.453 1.636-.453.363 0 .676.03.938.09v-.411c0-.447-.277-.671-.829-.671-.525 0-.987.143-1.387.429h-.624v-1.136c.726-.359 1.435-.538 2.126-.538.726 0 1.271.141 1.634.423.384.302.576.776.576 1.421v3.977h-.624c-.215 0-.373-.026-.478-.078zm-.394-2.334a4.384 4.384 0 0 0-.763-.072c-.653 0-.981.23-.981.689 0 .463.252.695.757.695.351 0 .68-.157.987-.471v-.841zm-5.806-1.481c0-.229-.049-.393-.146-.489-.088-.081-.23-.121-.424-.121-.375 0-.811.141-1.308.423v4.08h-1.501v-5.748h.871c.312 0 .505.161.582.483.524-.371 1.136-.556 1.834-.556 1.055 0 1.581.562 1.581 1.686v4.135h-1.489v-3.893zm-7.242 3.966c-.799 0-1.456-.262-1.968-.786-.529-.54-.793-1.255-.793-2.146 0-.895.264-1.616.793-2.164.512-.532 1.169-.798 1.968-.798.799 0 1.455.266 1.968.798.529.548.794 1.269.794 2.164 0 .891-.265 1.606-.794 2.146-.513.524-1.169.786-1.968.786zm.914-4.22c-.217-.294-.523-.441-.914-.441-.387 0-.69.147-.908.441-.226.303-.339.732-.339 1.288 0 .552.113.975.339 1.269.218.279.521.418.908.418.391 0 .697-.139.914-.418.222-.29.333-.713.333-1.269 0-.556-.111-.985-.333-1.288zm-5.619-2.351a.818.818 0 0 1-.581-.236.761.761 0 0 1-.26-.58.79.79 0 0 1 .26-.593.828.828 0 0 1 1.169 0c.17.166.254.363.254.593a.77.77 0 0 1-.254.58.84.84 0 0 1-.588.236zm-3.014 6.571c-1.107 0-1.659-.534-1.659-1.602v-3.035h-.636v-1.184h.636v-1.439h1.495v1.439h1.175v1.184h-1.175v2.908c0 .189.042.32.127.393.077.068.21.103.4.103h.708v1.076c-.448.104-.805.157-1.071.157zm-4.499-.151a.56.56 0 0 1-.267-.309c-.411.307-.897.46-1.459.46-.565 0-1.015-.153-1.349-.46-.356-.322-.534-.777-.534-1.366 0-.596.214-1.056.642-1.378.399-.302.945-.453 1.635-.453.363 0 .676.03.938.09v-.411c0-.447-.276-.671-.829-.671a2.32 2.32 0 0 0-1.386.429h-.624v-1.136c.726-.359 1.435-.538 2.125-.538.726 0 1.272.141 1.635.423.384.302.575.776.575 1.421v3.977h-.624c-.214 0-.373-.026-.478-.078zm-.394-2.334a4.364 4.364 0 0 0-.762-.072c-.655 0-.981.23-.981.689 0 .463.252.695.757.695.351 0 .68-.157.986-.471v-.841zm-5.806-1.481c0-.229-.048-.393-.145-.489-.089-.081-.231-.121-.424-.121-.376 0-.811.141-1.308.423v4.08h-1.502v-5.748h.872c.311 0 .505.161.581.483.525-.371 1.137-.556 1.835-.556 1.053 0 1.581.562 1.581 1.686v4.135h-1.49v-3.893zm-6.273-.103v3.996h-1.496v-5.748h.873c.295 0 .482.151.563.453.415-.331.863-.496 1.344-.496.105 0 .274.03.508.091v1.251l-.46-.006c-.529 0-.972.153-1.332.459zm-4.788 2.824c.524 0 .986-.162 1.386-.484h.654v1.07a3.952 3.952 0 0 1-2.186.659c-.872 0-1.55-.266-2.034-.798-.473-.516-.709-1.227-.709-2.134 0-.899.252-1.62.757-2.164.484-.532 1.11-.798 1.877-.798.811 0 1.413.25 1.805.75.423.54.636 1.412.636 2.617h-3.537c.097.854.547 1.282 1.351 1.282zm.708-2.412c-.065-.718-.386-1.076-.963-1.076-.578 0-.935.358-1.072 1.076h2.035zm-5.771 3.657c-1.106 0-1.659-.534-1.659-1.602v-3.035h-.636v-1.184h.636v-1.439h1.496v1.439h1.175v1.184h-1.175v2.908c0 .189.042.32.128.393.076.068.209.103.399.103h.708v1.076c-.448.104-.805.157-1.072.157zm-4.885-3.966c0-.229-.049-.393-.146-.489-.088-.081-.23-.121-.424-.121-.375 0-.811.141-1.308.423v4.08h-1.502v-5.748h.872c.312 0 .505.161.582.483.525-.371 1.136-.556 1.834-.556 1.055 0 1.581.562 1.581 1.686v4.135h-1.489v-3.893zm-6.085-3.802h1.605v7.695h-1.605v-7.695zm-6.163 3.778c0-.391-.172-.586-.515-.586-.376 0-.776.133-1.199.399v4.104h-1.502v-3.917c0-.391-.166-.586-.497-.586-.371 0-.772.133-1.205.399v4.104h-1.496v-5.748h.879c.311 0 .504.153.581.459.57-.355 1.136-.532 1.701-.532.586 0 1.018.211 1.297.635.593-.424 1.225-.635 1.895-.635 1.034 0 1.55.544 1.55 1.632v4.189h-1.489v-3.917zm-8.357-2.581a.818.818 0 0 1-.581-.236.793.793 0 0 1 0-1.173.828.828 0 0 1 1.169 0 .803.803 0 0 1 0 1.173.84.84 0 0 1-.588.236zm-3.044 6.42a.556.556 0 0 1-.267-.309c-.412.307-.898.46-1.459.46-.566 0-1.016-.153-1.351-.46-.355-.322-.533-.777-.533-1.366 0-.596.215-1.056.642-1.378.4-.302.945-.453 1.636-.453.363 0 .675.03.938.09v-.411c0-.447-.277-.671-.829-.671-.526 0-.988.143-1.388.429h-.623v-1.136c.726-.359 1.435-.538 2.126-.538.726 0 1.271.141 1.634.423.384.302.576.776.576 1.421v3.977h-.624c-.215 0-.373-.026-.478-.078zm-.394-2.334a4.384 4.384 0 0 0-.763-.072c-.654 0-.981.23-.981.689 0 .463.252.695.757.695.351 0 .68-.157.987-.471v-.841zm-5.806-1.481c0-.229-.049-.393-.146-.489-.088-.081-.23-.121-.424-.121-.375 0-.811.141-1.308.423v4.08h-1.501v-5.748h.871c.311 0 .505.161.582.483.524-.371 1.136-.556 1.834-.556 1.054 0 1.58.562 1.58 1.686v4.135h-1.488v-3.893zm-7.243 3.966c-.798 0-1.455-.262-1.967-.786-.529-.54-.794-1.255-.794-2.146 0-.895.265-1.616.794-2.164.512-.532 1.169-.798 1.967-.798.8 0 1.456.266 1.969.798.529.548.793 1.269.793 2.164 0 .891-.264 1.606-.793 2.146-.513.524-1.169.786-1.969.786zm.915-4.22c-.218-.294-.523-.441-.915-.441-.386 0-.69.147-.907.441-.226.303-.339.732-.339 1.288 0 .552.113.975.339 1.269.217.279.521.418.907.418.392 0 .697-.139.915-.418.222-.29.333-.713.333-1.269 0-.556-.111-.985-.333-1.288zm-6.266.254c0-.229-.049-.393-.146-.489-.088-.081-.23-.121-.424-.121-.375 0-.811.141-1.308.423v4.08h-1.502v-7.526h.806c.294 0 .483.053.563.157.089.109.133.361.133.756v1.33c.585-.359 1.181-.538 1.786-.538 1.055 0 1.581.562 1.581 1.686v4.135h-1.489v-3.893zm-7.151 3.966c-1.102 0-1.96-.335-2.573-1.004-.63-.681-.945-1.654-.945-2.919 0-1.25.337-2.219 1.011-2.908.646-.669 1.526-1.003 2.64-1.003.759 0 1.516.193 2.271.58v1.299h-.727a2.339 2.339 0 0 0-1.52-.544c-.634 0-1.12.2-1.459.599-.372.431-.557 1.078-.557 1.94 0 1.777.62 2.666 1.859 2.666.464 0 .826-.054 1.084-.163v-1.499h-1.205v-1.258h2.792V38.4c-.796.435-1.687.653-2.671.653zm29.619-5.64c.077.117.115.399.115.846v4.721h-1.489v-5.748h.811c.298 0 .487.06.563.181zm55.327 0c.077.117.115.399.115.846v4.721h-1.49v-5.748h.813c.298 0 .486.06.562.181z"/></svg>