<?xml version="1.0" encoding="utf-8"?>
<!-- Generator: Adobe Illustrator 26.0.0, SVG Export Plug-In . SVG Version: 6.00 Build 0)  -->
<svg version="1.1" id="Layer_1" xmlns="http://www.w3.org/2000/svg" xmlns:xlink="http://www.w3.org/1999/xlink" x="0px" y="0px"
	 viewBox="0 0 76 72" style="enable-background:new 0 0 76 72;" xml:space="preserve">
<style type="text/css">
	.st0{fill:#0E1A32;}
	.st1{fill:#FFFFFF;}
</style>
<g>
	<circle class="st0" cx="38.8" cy="34.7" r="30.1"/>
</g>
<g>
	<g>
		<g>
			<g>
				<path class="st1" d="M61.1,49.9c-1.4-0.1-2.3-0.2-2.6-0.2c-0.1-1.2-0.2-2.5-0.3-3.7c-0.4-3.7-4.5-6.7-8.2-5.9c0,3.1,0,6.2,0,9.4
					h-0.2c-0.1,0.1-0.2,0.1-0.4,0.2c-0.2,0.1-1.2,0.1-2.8,0.2l-0.2,0.2v1.5c0,0.1,0.1,0.1,0.1,0.2l0.1,0.1c1.5-0.1,3.9-0.1,7.3-0.1
					c3.3,0,5.8,0,7.3,0.1l0.2-0.2v-1.6L61.1,49.9z"/>
			</g>
			<g>
				<path class="st1" d="M49.8,24.3c0.3,2,1.1,3.8,2.8,5c1.6,1.2,3.5,1.6,5.6,1.5c0-0.6,0-1.1,0-1.5c0-2.6,0-5.2,0.1-7.7
					c0.1-1.5,0.6-2.9,2.4-3.2c0.2,0,0.3-0.3,0.6-0.7c-2,0-3.7,0-5.4,0c-3.2-0.1-5.3,1.2-6.5,4.2c-2.8,6.7-5.9,13.4-8.8,20.1
					c-0.1,0.3-0.3,0.6-0.5,1c-2.3-4.7-4.5-9.3-6.7-13.9c-1.3-2.6-2.5-5.2-3.8-7.7c-1.2-2.2-2.9-3.8-5.5-3.9c-2-0.1-4,0-6.1,0
					c-0.2,0-0.4,0.2-0.6,0.3c0.2,0.2,0.3,0.4,0.5,0.5c1.4,0.2,2,1.2,2.2,2.4c0.1,0.8,0.2,1.7,0.2,2.6c0,7.5,0,15,0,22.5
					c0,1.3-0.1,2.6-0.2,3.9h-0.6c-0.1,0-0.1,0-0.2,0.1c-0.2,0.1-1.2,0.1-2.8,0.2l-0.2,0.2v1.6l0.2,0.2c1.8-0.1,3.7-0.1,5.5-0.1
					c1.6,0,3.3,0,5.1,0.1l0.2-0.2v-1.6L27,49.9c-1.6-0.1-2.5-0.2-2.8-0.2c-0.1,0-0.1,0-0.1-0.1h-2.3c-0.2-8.5,0-16.9,0.1-25.3
					c0.2,0.3,0.3,0.6,0.5,0.9c3.7,7.5,7.5,15,11,22.6c0.9,1.9,1.9,2.7,4,2.4c0.8-0.1,1.1-0.3,1.4-1c3.2-7.4,6.5-14.8,9.8-22.2
					C49,26.1,49.4,25.2,49.8,24.3z"/>
			</g>
		</g>
	</g>
	<g>
		<path class="st1" d="M54.4,31.7c0.8,1.3,1.5,2.3,2.1,3.4c0.7,1.3,0.3,2.5-0.7,3.2c-1.1,0.8-2.2,0.7-3.2-0.2
			c-0.9-0.8-1-2.1-0.3-3.3C53,33.8,53.6,32.9,54.4,31.7z"/>
	</g>
</g>
</svg>
